<svg xmlns="http://www.w3.org/2000/svg" viewBox="0 0 24 24" width="24" height="24" fill="none" stroke="currentColor" stroke-width="2" stroke-linecap="round" stroke-linejoin="round">
  <path d="M9.5 2A2.5 2.5 0 0 1 12 4.5v15a2.5 2.5 0 0 1-4.96.5h2.96a.5.5 0 0 0 0-1h-3.62a2.5 2.5 0 0 1-.38-1.5V5.5A2.5 2.5 0 0 1 9.5 2Z"></path>
  <path d="M14.5 2A2.5 2.5 0 0 0 12 4.5v15a2.5 2.5 0 0 0 4.96.5h-2.96a.5.5 0 0 1 0-1h3.62a2.5 2.5 0 0 0 .38-1.5V5.5A2.5 2.5 0 0 0 14.5 2Z"></path>
  <path d="M8 7h8M8 10h8M8 13h8"></path>
</svg>